<?xml version="1.0" encoding="UTF-8"?>
<!DOCTYPE svg PUBLIC "-//W3C//DTD SVG 1.1//EN"
    "http://www.w3.org/Graphics/SVG/1.1/DTD/svg11.dtd"><svg font-size="1" viewBox="0.0 0.0 500.0 261.9047619047619" stroke="rgb(0,0,0)" xmlns="http://www.w3.org/2000/svg" width="500.0000" stroke-opacity="1" height="261.9048" version="1.1" xmlns:xlink="http://www.w3.org/1999/xlink"><defs></defs><g stroke-linejoin="miter" fill-opacity="0.0" stroke-dashoffset="0.0" fill="rgb(0,0,0)" stroke="rgb(255,0,0)" stroke-linecap="butt" stroke-miterlimit="10.0" stroke-opacity="1.0" stroke-dasharray="4.761904761904762,4.761904761904762" stroke-width="1.447493728911492"><path d="M 426.1905,130.9524 c 0.0000,-31.5591 -25.5837,-57.1429 -57.1429 -57.1429c -31.5591,-0.0000 -57.1429,25.5837 -57.1429 57.1429c -0.0000,31.5591 25.5837,57.1429 57.1429 57.1429c 31.5591,0.0000 57.1429,-25.5837 57.1429 -57.1429Z"/></g><g stroke-linejoin="miter" fill-opacity="0.0" fill="rgb(0,0,0)" stroke="rgb(0,0,255)" stroke-linecap="butt" stroke-miterlimit="10.0" stroke-opacity="1.0" stroke-width="2.7140507417090474"><path d="M 378.5714,226.1905 l -1.8095,-9.5238 l -1.6190,-9.5238 l -1.4286,-9.5238 l -1.2381,-9.5238 l 1.1501,-9.5238 l 4.2749,-9.5238 l 5.3883,-9.5238 l 4.9496,-9.5238 l 3.4087,-9.5238 l 1.2093,-9.5238 l -1.2093,-9.5238 l -3.4087,-9.5238 l -4.9496,-9.5238 l -5.3883,-9.5238 l -4.2749,-9.5238 l -1.1501,-9.5238 l 1.2381,-9.5238 l 1.4286,-9.5238 l 1.6190,-9.5238 l 1.8095,-9.5238 "/></g><g stroke-linejoin="miter" fill-opacity="0.0" fill="rgb(0,0,0)" stroke="rgb(128,128,128)" stroke-linecap="butt" stroke-miterlimit="10.0" stroke-opacity="1.0" stroke-width="0.723746864455746"><path d="M 464.2857,250.0000 v -4.7619 v -4.7619 v -4.7619 v -4.7619 v -4.7619 v -4.7619 v -4.7619 v -4.7619 v -4.7619 v -4.7619 v -4.7619 v -4.7619 v -4.7619 v -4.7619 v -4.7619 v -4.7619 v -4.7619 v -4.7619 v -4.7619 v -4.7619 v -4.7619 v -4.7619 v -4.7619 v -4.7619 v -4.7619 v -4.7619 v -4.7619 v -4.7619 v -4.7619 v -4.7619 v -4.7619 v -4.7619 v -4.7619 v -4.7619 v -4.7619 v -4.7619 v -4.7619 v -4.7619 v -4.7619 v -4.7619 v -4.7619 v -4.7619 v -4.7619 v -4.7619 v -4.7619 v -4.7619 v -4.7619 v -4.7619 v -4.7619 v -4.7619 "/></g><g stroke-linejoin="miter" fill-opacity="0.0" fill="rgb(0,0,0)" stroke="rgb(128,128,128)" stroke-linecap="butt" stroke-miterlimit="10.0" stroke-opacity="1.0" stroke-width="0.723746864455746"><path d="M 440.4762,250.0000 v -4.7619 v -4.7619 v -4.7619 v -4.7619 v -4.7619 v -4.7619 v -4.7619 v -4.7619 v -4.7619 v -4.7619 v -4.7619 v -4.7619 v -4.7619 v -4.7619 v -4.7619 v -4.7619 v -4.7619 v -4.7619 v -4.7619 v -4.7619 v -4.7619 v -4.7619 v -4.7619 v -4.7619 v -4.7619 v -4.7619 v -4.7619 v -4.7619 v -4.7619 v -4.7619 v -4.7619 v -4.7619 v -4.7619 v -4.7619 v -4.7619 v -4.7619 v -4.7619 v -4.7619 v -4.7619 v -4.7619 v -4.7619 v -4.7619 v -4.7619 v -4.7619 v -4.7619 v -4.7619 v -4.7619 v -4.7619 v -4.7619 v -4.7619 "/></g><g stroke-linejoin="miter" fill-opacity="0.0" fill="rgb(0,0,0)" stroke="rgb(128,128,128)" stroke-linecap="butt" stroke-miterlimit="10.0" stroke-opacity="1.0" stroke-width="0.723746864455746"><path d="M 416.6667,250.0000 v -4.7619 v -4.7619 v -4.7619 v -4.7619 v -4.7619 v -4.7619 v -4.7619 v -4.7619 v -4.7619 v -4.7619 v -4.7619 v -4.7619 v -4.7619 v -4.7619 v -4.7619 v -4.7619 v -4.7619 v -4.7619 l 0.0735,-4.7619 l 0.3410,-4.7619 l 0.4857,-4.7619 l 0.5064,-4.7619 l 0.4306,-4.7619 l 0.2859,-4.7619 l 0.0999,-4.7619 l -0.0999,-4.7619 l -0.2859,-4.7619 l -0.4306,-4.7619 l -0.5064,-4.7619 l -0.4857,-4.7619 l -0.3410,-4.7619 l -0.0735,-4.7619 v -4.7619 v -4.7619 v -4.7619 v -4.7619 v -4.7619 v -4.7619 v -4.7619 v -4.7619 v -4.7619 v -4.7619 v -4.7619 v -4.7619 v -4.7619 v -4.7619 v -4.7619 v -4.7619 v -4.7619 v -4.7619 "/></g><g stroke-linejoin="miter" fill-opacity="0.0" fill="rgb(0,0,0)" stroke="rgb(128,128,128)" stroke-linecap="butt" stroke-miterlimit="10.0" stroke-opacity="1.0" stroke-width="0.723746864455746"><path d="M 392.8571,250.0000 v -4.7619 v -4.7619 v -4.7619 v -4.7619 v -4.7619 v -4.7619 v -4.7619 v -4.7619 v -4.7619 v -4.7619 v -4.7619 v -4.7619 v -4.7619 v -4.7619 l 0.4145,-4.7619 l 1.2435,-4.7619 l 1.8153,-4.7619 l 2.1529,-4.7619 l 2.2838,-4.7619 l 2.2356,-4.7619 l 2.0358,-4.7619 l 1.7120,-4.7619 l 1.2917,-4.7619 l 0.8026,-4.7619 l 0.2721,-4.7619 l -0.2721,-4.7619 l -0.8026,-4.7619 l -1.2917,-4.7619 l -1.7120,-4.7619 l -2.0358,-4.7619 l -2.2356,-4.7619 l -2.2838,-4.7619 l -2.1529,-4.7619 l -1.8153,-4.7619 l -1.2435,-4.7619 l -0.4145,-4.7619 v -4.7619 v -4.7619 v -4.7619 v -4.7619 v -4.7619 v -4.7619 v -4.7619 v -4.7619 v -4.7619 v -4.7619 v -4.7619 v -4.7619 v -4.7619 v -4.7619 "/></g><g stroke-linejoin="miter" fill-opacity="0.0" fill="rgb(0,0,0)" stroke="rgb(128,128,128)" stroke-linecap="butt" stroke-miterlimit="10.0" stroke-opacity="1.0" stroke-width="0.723746864455746"><path d="M 369.0476,250.0000 v -4.7619 v -4.7619 v -4.7619 v -4.7619 v -4.7619 v -4.7619 v -4.7619 v -4.7619 v -4.7619 v -4.7619 v -4.7619 v -4.7619 l 0.0000,-4.7619 l 0.6074,-4.7619 l 1.6155,-4.7619 l 2.3343,-4.7619 l 2.7913,-4.7619 l 3.0141,-4.7619 l 3.0302,-4.7619 l 2.8671,-4.7619 l 2.5525,-4.7619 l 2.1139,-4.7619 l 1.5788,-4.7619 l 0.9748,-4.7619 l 0.3295,-4.7619 l -0.3295,-4.7619 l -0.9748,-4.7619 l -1.5788,-4.7619 l -2.1139,-4.7619 l -2.5525,-4.7619 l -2.8671,-4.7619 l -3.0302,-4.7619 l -3.0141,-4.7619 l -2.7913,-4.7619 l -2.3343,-4.7619 l -1.6155,-4.7619 l -0.6074,-4.7619 v -4.7619 v -4.7619 v -4.7619 v -4.7619 v -4.7619 v -4.7619 v -4.7619 v -4.7619 v -4.7619 v -4.7619 v -4.7619 v -4.7619 v -4.7619 "/></g><g stroke-linejoin="miter" fill-opacity="0.0" fill="rgb(0,0,0)" stroke="rgb(128,128,128)" stroke-linecap="butt" stroke-miterlimit="10.0" stroke-opacity="1.0" stroke-width="0.723746864455746"><path d="M 345.2381,250.0000 v -4.7619 v -4.7619 v -4.7619 v -4.7619 v -4.7619 v -4.7619 v -4.7619 v -4.7619 v -4.7619 v -4.7619 v -4.7619 v -4.7619 v -4.7619 v -4.7619 l 0.4145,-4.7619 l 1.2435,-4.7619 l 1.8153,-4.7619 l 2.1529,-4.7619 l 2.2838,-4.7619 l 2.2356,-4.7619 l 2.0358,-4.7619 l 1.7120,-4.7619 l 1.2917,-4.7619 l 0.8026,-4.7619 l 0.2721,-4.7619 l -0.2721,-4.7619 l -0.8026,-4.7619 l -1.2917,-4.7619 l -1.7120,-4.7619 l -2.0358,-4.7619 l -2.2356,-4.7619 l -2.2838,-4.7619 l -2.1529,-4.7619 l -1.8153,-4.7619 l -1.2435,-4.7619 l -0.4145,-4.7619 v -4.7619 v -4.7619 v -4.7619 v -4.7619 v -4.7619 v -4.7619 v -4.7619 v -4.7619 v -4.7619 v -4.7619 v -4.7619 v -4.7619 v -4.7619 v -4.7619 "/></g><g stroke-linejoin="miter" fill-opacity="0.0" fill="rgb(0,0,0)" stroke="rgb(128,128,128)" stroke-linecap="butt" stroke-miterlimit="10.0" stroke-opacity="1.0" stroke-width="0.723746864455746"><path d="M 321.4286,250.0000 v -4.7619 v -4.7619 v -4.7619 v -4.7619 v -4.7619 v -4.7619 v -4.7619 v -4.7619 v -4.7619 v -4.7619 v -4.7619 v -4.7619 v -4.7619 v -4.7619 v -4.7619 v -4.7619 v -4.7619 v -4.7619 l 0.0735,-4.7619 l 0.3410,-4.7619 l 0.4857,-4.7619 l 0.5064,-4.7619 l 0.4306,-4.7619 l 0.2859,-4.7619 l 0.0999,-4.7619 l -0.0999,-4.7619 l -0.2859,-4.7619 l -0.4306,-4.7619 l -0.5064,-4.7619 l -0.4857,-4.7619 l -0.3410,-4.7619 l -0.0735,-4.7619 v -4.7619 v -4.7619 v -4.7619 v -4.7619 v -4.7619 v -4.7619 v -4.7619 v -4.7619 v -4.7619 v -4.7619 v -4.7619 v -4.7619 v -4.7619 v -4.7619 v -4.7619 v -4.7619 v -4.7619 v -4.7619 "/></g><g stroke-linejoin="miter" fill-opacity="0.0" fill="rgb(0,0,0)" stroke="rgb(128,128,128)" stroke-linecap="butt" stroke-miterlimit="10.0" stroke-opacity="1.0" stroke-width="0.723746864455746"><path d="M 297.6190,250.0000 v -4.7619 v -4.7619 v -4.7619 v -4.7619 v -4.7619 v -4.7619 v -4.7619 v -4.7619 v -4.7619 v -4.7619 v -4.7619 v -4.7619 v -4.7619 v -4.7619 v -4.7619 v -4.7619 v -4.7619 v -4.7619 v -4.7619 v -4.7619 v -4.7619 v -4.7619 v -4.7619 v -4.7619 v -4.7619 v -4.7619 v -4.7619 v -4.7619 v -4.7619 v -4.7619 v -4.7619 v -4.7619 v -4.7619 v -4.7619 v -4.7619 v -4.7619 v -4.7619 v -4.7619 v -4.7619 v -4.7619 v -4.7619 v -4.7619 v -4.7619 v -4.7619 v -4.7619 v -4.7619 v -4.7619 v -4.7619 v -4.7619 v -4.7619 "/></g><g stroke-linejoin="miter" fill-opacity="0.0" fill="rgb(0,0,0)" stroke="rgb(128,128,128)" stroke-linecap="butt" stroke-miterlimit="10.0" stroke-opacity="1.0" stroke-width="0.723746864455746"><path d="M 273.8095,250.0000 v -4.7619 v -4.7619 v -4.7619 v -4.7619 v -4.7619 v -4.7619 v -4.7619 v -4.7619 v -4.7619 v -4.7619 v -4.7619 v -4.7619 v -4.7619 v -4.7619 v -4.7619 v -4.7619 v -4.7619 v -4.7619 v -4.7619 v -4.7619 v -4.7619 v -4.7619 v -4.7619 v -4.7619 v -4.7619 v -4.7619 v -4.7619 v -4.7619 v -4.7619 v -4.7619 v -4.7619 v -4.7619 v -4.7619 v -4.7619 v -4.7619 v -4.7619 v -4.7619 v -4.7619 v -4.7619 v -4.7619 v -4.7619 v -4.7619 v -4.7619 v -4.7619 v -4.7619 v -4.7619 v -4.7619 v -4.7619 v -4.7619 v -4.7619 "/></g><g stroke-linejoin="miter" fill-opacity="0.0" fill="rgb(0,0,0)" stroke="rgb(128,128,128)" stroke-linecap="butt" stroke-miterlimit="10.0" stroke-opacity="1.0" stroke-width="0.723746864455746"><path d="M 250.0000,35.7143 h 4.7619 h 4.7619 h 4.7619 h 4.7619 h 4.7619 h 4.7619 h 4.7619 h 4.7619 h 4.7619 h 4.7619 h 4.7619 h 4.7619 h 4.7619 h 4.7619 h 4.7619 h 4.7619 h 4.7619 h 4.7619 h 4.7619 h 4.7619 h 4.7619 h 4.7619 h 4.7619 h 4.7619 h 4.7619 h 4.7619 h 4.7619 h 4.7619 h 4.7619 h 4.7619 h 4.7619 h 4.7619 h 4.7619 h 4.7619 h 4.7619 h 4.7619 h 4.7619 h 4.7619 h 4.7619 h 4.7619 h 4.7619 h 4.7619 h 4.7619 h 4.7619 h 4.7619 h 4.7619 h 4.7619 h 4.7619 h 4.7619 h 4.7619 "/></g><g stroke-linejoin="miter" fill-opacity="0.0" fill="rgb(0,0,0)" stroke="rgb(128,128,128)" stroke-linecap="butt" stroke-miterlimit="10.0" stroke-opacity="1.0" stroke-width="0.723746864455746"><path d="M 250.0000,59.5238 h 4.7619 h 4.7619 h 4.7619 h 4.7619 h 4.7619 h 4.7619 h 4.7619 h 4.7619 h 4.7619 h 4.7619 h 4.7619 h 4.7619 h 4.7619 h 4.7619 h 4.7619 h 4.7619 h 4.7619 h 4.7619 h 4.7619 h 4.7619 h 4.7619 h 4.7619 h 4.7619 h 4.7619 h 4.7619 h 4.7619 h 4.7619 h 4.7619 h 4.7619 h 4.7619 h 4.7619 h 4.7619 h 4.7619 h 4.7619 h 4.7619 h 4.7619 h 4.7619 h 4.7619 h 4.7619 h 4.7619 h 4.7619 h 4.7619 h 4.7619 h 4.7619 h 4.7619 h 4.7619 h 4.7619 h 4.7619 h 4.7619 h 4.7619 "/></g><g stroke-linejoin="miter" fill-opacity="0.0" fill="rgb(0,0,0)" stroke="rgb(128,128,128)" stroke-linecap="butt" stroke-miterlimit="10.0" stroke-opacity="1.0" stroke-width="0.723746864455746"><path d="M 250.0000,83.3333 h 4.7619 h 4.7619 h 4.7619 h 4.7619 h 4.7619 h 4.7619 h 4.7619 h 4.7619 h 4.7619 h 4.7619 h 4.7619 h 4.7619 h 4.7619 h 4.7619 h 4.7619 h 4.7619 h 4.7619 h 4.7619 h 4.8354 h 5.1029 h 5.2476 h 5.2683 h 5.1925 h 5.0478 h 4.8618 h 4.6620 h 4.4760 h 4.3313 h 4.2555 h 4.2762 h 4.4209 h 4.6884 h 4.7619 h 4.7619 h 4.7619 h 4.7619 h 4.7619 h 4.7619 h 4.7619 h 4.7619 h 4.7619 h 4.7619 h 4.7619 h 4.7619 h 4.7619 h 4.7619 h 4.7619 h 4.7619 h 4.7619 h 4.7619 "/></g><g stroke-linejoin="miter" fill-opacity="0.0" fill="rgb(0,0,0)" stroke="rgb(128,128,128)" stroke-linecap="butt" stroke-miterlimit="10.0" stroke-opacity="1.0" stroke-width="0.723746864455746"><path d="M 250.0000,107.1429 h 4.7619 h 4.7619 h 4.7619 h 4.7619 h 4.7619 h 4.7619 h 4.7619 h 4.7619 h 4.7619 h 4.7619 h 4.7619 h 4.7619 h 4.7619 h 4.7619 h 5.1764 h 6.0054 h 6.5772 h 6.9148 h 7.0457 h 6.9975 h 6.7977 h 6.4739 h 6.0537 h 5.5645 h 5.0340 h 4.4898 h 3.9593 h 3.4702 h 3.0499 h 2.7261 h 2.5263 h 2.4781 h 2.6090 h 2.9466 h 3.5184 h 4.3474 h 4.7619 h 4.7619 h 4.7619 h 4.7619 h 4.7619 h 4.7619 h 4.7619 h 4.7619 h 4.7619 h 4.7619 h 4.7619 h 4.7619 h 4.7619 h 4.7619 "/></g><g stroke-linejoin="miter" fill-opacity="0.0" fill="rgb(0,0,0)" stroke="rgb(128,128,128)" stroke-linecap="butt" stroke-miterlimit="10.0" stroke-opacity="1.0" stroke-width="0.723746864455746"><path d="M 250.0000,130.9524 h 4.7619 h 4.7619 h 4.7619 h 4.7619 h 4.7619 h 4.7619 h 4.7619 h 4.7619 h 4.7619 h 4.7619 h 4.7619 h 4.7619 h 4.7619 h 5.3693 h 6.3775 h 7.0962 h 7.5532 h 7.7760 h 7.7921 h 7.6290 h 7.3144 h 6.8758 h 6.3407 h 5.7367 h 5.0914 h 4.4324 h 3.7871 h 3.1831 h 2.6480 h 2.2094 h 1.8948 h 1.7317 h 1.7478 h 1.9706 h 2.4276 h 3.1464 h 4.1545 h 4.7619 h 4.7619 h 4.7619 h 4.7619 h 4.7619 h 4.7619 h 4.7619 h 4.7619 h 4.7619 h 4.7619 h 4.7619 h 4.7619 h 4.7619 "/></g><g stroke-linejoin="miter" fill-opacity="0.0" fill="rgb(0,0,0)" stroke="rgb(128,128,128)" stroke-linecap="butt" stroke-miterlimit="10.0" stroke-opacity="1.0" stroke-width="0.723746864455746"><path d="M 250.0000,154.7619 h 4.7619 h 4.7619 h 4.7619 h 4.7619 h 4.7619 h 4.7619 h 4.7619 h 4.7619 h 4.7619 h 4.7619 h 4.7619 h 4.7619 h 4.7619 h 4.7619 h 5.1764 h 6.0054 h 6.5772 h 6.9148 h 7.0457 h 6.9975 h 6.7977 h 6.4739 h 6.0537 h 5.5645 h 5.0340 h 4.4898 h 3.9593 h 3.4702 h 3.0499 h 2.7261 h 2.5263 h 2.4781 h 2.6090 h 2.9466 h 3.5184 h 4.3474 h 4.7619 h 4.7619 h 4.7619 h 4.7619 h 4.7619 h 4.7619 h 4.7619 h 4.7619 h 4.7619 h 4.7619 h 4.7619 h 4.7619 h 4.7619 h 4.7619 "/></g><g stroke-linejoin="miter" fill-opacity="0.0" fill="rgb(0,0,0)" stroke="rgb(128,128,128)" stroke-linecap="butt" stroke-miterlimit="10.0" stroke-opacity="1.0" stroke-width="0.723746864455746"><path d="M 250.0000,178.5714 h 4.7619 h 4.7619 h 4.7619 h 4.7619 h 4.7619 h 4.7619 h 4.7619 h 4.7619 h 4.7619 h 4.7619 h 4.7619 h 4.7619 h 4.7619 h 4.7619 h 4.7619 h 4.7619 h 4.7619 h 4.7619 h 4.8354 h 5.1029 h 5.2476 h 5.2683 h 5.1925 h 5.0478 h 4.8618 h 4.6620 h 4.4760 h 4.3313 h 4.2555 h 4.2762 h 4.4209 h 4.6884 h 4.7619 h 4.7619 h 4.7619 h 4.7619 h 4.7619 h 4.7619 h 4.7619 h 4.7619 h 4.7619 h 4.7619 h 4.7619 h 4.7619 h 4.7619 h 4.7619 h 4.7619 h 4.7619 h 4.7619 h 4.7619 "/></g><g stroke-linejoin="miter" fill-opacity="0.0" fill="rgb(0,0,0)" stroke="rgb(128,128,128)" stroke-linecap="butt" stroke-miterlimit="10.0" stroke-opacity="1.0" stroke-width="0.723746864455746"><path d="M 250.0000,202.3810 h 4.7619 h 4.7619 h 4.7619 h 4.7619 h 4.7619 h 4.7619 h 4.7619 h 4.7619 h 4.7619 h 4.7619 h 4.7619 h 4.7619 h 4.7619 h 4.7619 h 4.7619 h 4.7619 h 4.7619 h 4.7619 h 4.7619 h 4.7619 h 4.7619 h 4.7619 h 4.7619 h 4.7619 h 4.7619 h 4.7619 h 4.7619 h 4.7619 h 4.7619 h 4.7619 h 4.7619 h 4.7619 h 4.7619 h 4.7619 h 4.7619 h 4.7619 h 4.7619 h 4.7619 h 4.7619 h 4.7619 h 4.7619 h 4.7619 h 4.7619 h 4.7619 h 4.7619 h 4.7619 h 4.7619 h 4.7619 h 4.7619 h 4.7619 "/></g><g stroke-linejoin="miter" fill-opacity="0.0" fill="rgb(0,0,0)" stroke="rgb(128,128,128)" stroke-linecap="butt" stroke-miterlimit="10.0" stroke-opacity="1.0" stroke-width="0.723746864455746"><path d="M 250.0000,226.1905 h 4.7619 h 4.7619 h 4.7619 h 4.7619 h 4.7619 h 4.7619 h 4.7619 h 4.7619 h 4.7619 h 4.7619 h 4.7619 h 4.7619 h 4.7619 h 4.7619 h 4.7619 h 4.7619 h 4.7619 h 4.7619 h 4.7619 h 4.7619 h 4.7619 h 4.7619 h 4.7619 h 4.7619 h 4.7619 h 4.7619 h 4.7619 h 4.7619 h 4.7619 h 4.7619 h 4.7619 h 4.7619 h 4.7619 h 4.7619 h 4.7619 h 4.7619 h 4.7619 h 4.7619 h 4.7619 h 4.7619 h 4.7619 h 4.7619 h 4.7619 h 4.7619 h 4.7619 h 4.7619 h 4.7619 h 4.7619 h 4.7619 h 4.7619 "/></g><g stroke-linejoin="miter" fill-opacity="0.0" stroke-dashoffset="0.0" fill="rgb(0,0,0)" stroke="rgb(255,0,0)" stroke-linecap="butt" stroke-miterlimit="10.0" stroke-opacity="1.0" stroke-dasharray="4.761904761904762,4.761904761904762" stroke-width="1.447493728911492"><path d="M 176.1905,130.9524 c 0.0000,-31.5591 -25.5837,-57.1429 -57.1429 -57.1429c -31.5591,-0.0000 -57.1429,25.5837 -57.1429 57.1429c -0.0000,31.5591 25.5837,57.1429 57.1429 57.1429c 31.5591,0.0000 57.1429,-25.5837 57.1429 -57.1429Z"/></g><g stroke-linejoin="miter" fill-opacity="0.0" fill="rgb(0,0,0)" stroke="rgb(0,0,255)" stroke-linecap="butt" stroke-miterlimit="10.0" stroke-opacity="1.0" stroke-width="2.7140507417090474"><path d="M 128.5714,226.1905 l -1.8095,-9.5238 l -1.6190,-9.5238 l -1.4286,-9.5238 l -1.2381,-9.5238 l -1.0476,-9.5238 l -0.8571,-9.5238 l -0.6667,-9.5238 l -0.4762,-9.5238 l -0.2857,-9.5238 l -0.0952,-9.5238 l 0.0952,-9.5238 l 0.2857,-9.5238 l 0.4762,-9.5238 l 0.6667,-9.5238 l 0.8571,-9.5238 l 1.0476,-9.5238 l 1.2381,-9.5238 l 1.4286,-9.5238 l 1.6190,-9.5238 l 1.8095,-9.5238 "/></g><g stroke-linejoin="miter" fill-opacity="0.0" fill="rgb(0,0,0)" stroke="rgb(128,128,128)" stroke-linecap="butt" stroke-miterlimit="10.0" stroke-opacity="1.0" stroke-width="0.723746864455746"><path d="M 214.2857,250.0000 v -4.7619 v -4.7619 v -4.7619 v -4.7619 v -4.7619 v -4.7619 v -4.7619 v -4.7619 v -4.7619 v -4.7619 v -4.7619 v -4.7619 v -4.7619 v -4.7619 v -4.7619 v -4.7619 v -4.7619 v -4.7619 v -4.7619 v -4.7619 v -4.7619 v -4.7619 v -4.7619 v -4.7619 v -4.7619 v -4.7619 v -4.7619 v -4.7619 v -4.7619 v -4.7619 v -4.7619 v -4.7619 v -4.7619 v -4.7619 v -4.7619 v -4.7619 v -4.7619 v -4.7619 v -4.7619 v -4.7619 v -4.7619 v -4.7619 v -4.7619 v -4.7619 v -4.7619 v -4.7619 v -4.7619 v -4.7619 v -4.7619 v -4.7619 "/></g><g stroke-linejoin="miter" fill-opacity="0.0" fill="rgb(0,0,0)" stroke="rgb(128,128,128)" stroke-linecap="butt" stroke-miterlimit="10.0" stroke-opacity="1.0" stroke-width="0.723746864455746"><path d="M 190.4762,250.0000 v -4.7619 v -4.7619 v -4.7619 v -4.7619 v -4.7619 v -4.7619 v -4.7619 v -4.7619 v -4.7619 v -4.7619 v -4.7619 v -4.7619 v -4.7619 v -4.7619 v -4.7619 v -4.7619 v -4.7619 v -4.7619 v -4.7619 v -4.7619 v -4.7619 v -4.7619 v -4.7619 v -4.7619 v -4.7619 v -4.7619 v -4.7619 v -4.7619 v -4.7619 v -4.7619 v -4.7619 v -4.7619 v -4.7619 v -4.7619 v -4.7619 v -4.7619 v -4.7619 v -4.7619 v -4.7619 v -4.7619 v -4.7619 v -4.7619 v -4.7619 v -4.7619 v -4.7619 v -4.7619 v -4.7619 v -4.7619 v -4.7619 v -4.7619 "/></g><g stroke-linejoin="miter" fill-opacity="0.0" fill="rgb(0,0,0)" stroke="rgb(128,128,128)" stroke-linecap="butt" stroke-miterlimit="10.0" stroke-opacity="1.0" stroke-width="0.723746864455746"><path d="M 166.6667,250.0000 v -4.7619 v -4.7619 v -4.7619 v -4.7619 v -4.7619 v -4.7619 v -4.7619 v -4.7619 v -4.7619 v -4.7619 v -4.7619 v -4.7619 v -4.7619 v -4.7619 v -4.7619 v -4.7619 v -4.7619 v -4.7619 v -4.7619 v -4.7619 v -4.7619 v -4.7619 v -4.7619 v -4.7619 v -4.7619 v -4.7619 v -4.7619 v -4.7619 v -4.7619 v -4.7619 v -4.7619 v -4.7619 v -4.7619 v -4.7619 v -4.7619 v -4.7619 v -4.7619 v -4.7619 v -4.7619 v -4.7619 v -4.7619 v -4.7619 v -4.7619 v -4.7619 v -4.7619 v -4.7619 v -4.7619 v -4.7619 v -4.7619 v -4.7619 "/></g><g stroke-linejoin="miter" fill-opacity="0.0" fill="rgb(0,0,0)" stroke="rgb(128,128,128)" stroke-linecap="butt" stroke-miterlimit="10.0" stroke-opacity="1.0" stroke-width="0.723746864455746"><path d="M 142.8571,250.0000 v -4.7619 v -4.7619 v -4.7619 v -4.7619 v -4.7619 v -4.7619 v -4.7619 v -4.7619 v -4.7619 v -4.7619 v -4.7619 v -4.7619 v -4.7619 v -4.7619 v -4.7619 v -4.7619 v -4.7619 v -4.7619 v -4.7619 v -4.7619 v -4.7619 v -4.7619 v -4.7619 v -4.7619 v -4.7619 v -4.7619 v -4.7619 v -4.7619 v -4.7619 v -4.7619 v -4.7619 v -4.7619 v -4.7619 v -4.7619 v -4.7619 v -4.7619 v -4.7619 v -4.7619 v -4.7619 v -4.7619 v -4.7619 v -4.7619 v -4.7619 v -4.7619 v -4.7619 v -4.7619 v -4.7619 v -4.7619 v -4.7619 v -4.7619 "/></g><g stroke-linejoin="miter" fill-opacity="0.0" fill="rgb(0,0,0)" stroke="rgb(128,128,128)" stroke-linecap="butt" stroke-miterlimit="10.0" stroke-opacity="1.0" stroke-width="0.723746864455746"><path d="M 119.0476,250.0000 v -4.7619 v -4.7619 v -4.7619 v -4.7619 v -4.7619 v -4.7619 v -4.7619 v -4.7619 v -4.7619 v -4.7619 v -4.7619 v -4.7619 v -4.7619 v -4.7619 v -4.7619 v -4.7619 v -4.7619 v -4.7619 v -4.7619 v -4.7619 v -4.7619 v -4.7619 v -4.7619 v -4.7619 v -4.7619 v -4.7619 v -4.7619 v -4.7619 v -4.7619 v -4.7619 v -4.7619 v -4.7619 v -4.7619 v -4.7619 v -4.7619 v -4.7619 v -4.7619 v -4.7619 v -4.7619 v -4.7619 v -4.7619 v -4.7619 v -4.7619 v -4.7619 v -4.7619 v -4.7619 v -4.7619 v -4.7619 v -4.7619 v -4.7619 "/></g><g stroke-linejoin="miter" fill-opacity="0.0" fill="rgb(0,0,0)" stroke="rgb(128,128,128)" stroke-linecap="butt" stroke-miterlimit="10.0" stroke-opacity="1.0" stroke-width="0.723746864455746"><path d="M 95.2381,250.0000 v -4.7619 v -4.7619 v -4.7619 v -4.7619 v -4.7619 v -4.7619 v -4.7619 v -4.7619 v -4.7619 v -4.7619 v -4.7619 v -4.7619 v -4.7619 v -4.7619 v -4.7619 v -4.7619 v -4.7619 v -4.7619 v -4.7619 v -4.7619 v -4.7619 v -4.7619 v -4.7619 v -4.7619 v -4.7619 v -4.7619 v -4.7619 v -4.7619 v -4.7619 v -4.7619 v -4.7619 v -4.7619 v -4.7619 v -4.7619 v -4.7619 v -4.7619 v -4.7619 v -4.7619 v -4.7619 v -4.7619 v -4.7619 v -4.7619 v -4.7619 v -4.7619 v -4.7619 v -4.7619 v -4.7619 v -4.7619 v -4.7619 v -4.7619 "/></g><g stroke-linejoin="miter" fill-opacity="0.0" fill="rgb(0,0,0)" stroke="rgb(128,128,128)" stroke-linecap="butt" stroke-miterlimit="10.0" stroke-opacity="1.0" stroke-width="0.723746864455746"><path d="M 71.4286,250.0000 v -4.7619 v -4.7619 v -4.7619 v -4.7619 v -4.7619 v -4.7619 v -4.7619 v -4.7619 v -4.7619 v -4.7619 v -4.7619 v -4.7619 v -4.7619 v -4.7619 v -4.7619 v -4.7619 v -4.7619 v -4.7619 v -4.7619 v -4.7619 v -4.7619 v -4.7619 v -4.7619 v -4.7619 v -4.7619 v -4.7619 v -4.7619 v -4.7619 v -4.7619 v -4.7619 v -4.7619 v -4.7619 v -4.7619 v -4.7619 v -4.7619 v -4.7619 v -4.7619 v -4.7619 v -4.7619 v -4.7619 v -4.7619 v -4.7619 v -4.7619 v -4.7619 v -4.7619 v -4.7619 v -4.7619 v -4.7619 v -4.7619 v -4.7619 "/></g><g stroke-linejoin="miter" fill-opacity="0.0" fill="rgb(0,0,0)" stroke="rgb(128,128,128)" stroke-linecap="butt" stroke-miterlimit="10.0" stroke-opacity="1.0" stroke-width="0.723746864455746"><path d="M 47.6190,250.0000 v -4.7619 v -4.7619 v -4.7619 v -4.7619 v -4.7619 v -4.7619 v -4.7619 v -4.7619 v -4.7619 v -4.7619 v -4.7619 v -4.7619 v -4.7619 v -4.7619 v -4.7619 v -4.7619 v -4.7619 v -4.7619 v -4.7619 v -4.7619 v -4.7619 v -4.7619 v -4.7619 v -4.7619 v -4.7619 v -4.7619 v -4.7619 v -4.7619 v -4.7619 v -4.7619 v -4.7619 v -4.7619 v -4.7619 v -4.7619 v -4.7619 v -4.7619 v -4.7619 v -4.7619 v -4.7619 v -4.7619 v -4.7619 v -4.7619 v -4.7619 v -4.7619 v -4.7619 v -4.7619 v -4.7619 v -4.7619 v -4.7619 v -4.7619 "/></g><g stroke-linejoin="miter" fill-opacity="0.0" fill="rgb(0,0,0)" stroke="rgb(128,128,128)" stroke-linecap="butt" stroke-miterlimit="10.0" stroke-opacity="1.0" stroke-width="0.723746864455746"><path d="M 23.8095,250.0000 v -4.7619 v -4.7619 v -4.7619 v -4.7619 v -4.7619 v -4.7619 v -4.7619 v -4.7619 v -4.7619 v -4.7619 v -4.7619 v -4.7619 v -4.7619 v -4.7619 v -4.7619 v -4.7619 v -4.7619 v -4.7619 v -4.7619 v -4.7619 v -4.7619 v -4.7619 v -4.7619 v -4.7619 v -4.7619 v -4.7619 v -4.7619 v -4.7619 v -4.7619 v -4.7619 v -4.7619 v -4.7619 v -4.7619 v -4.7619 v -4.7619 v -4.7619 v -4.7619 v -4.7619 v -4.7619 v -4.7619 v -4.7619 v -4.7619 v -4.7619 v -4.7619 v -4.7619 v -4.7619 v -4.7619 v -4.7619 v -4.7619 v -4.7619 "/></g><g stroke-linejoin="miter" fill-opacity="0.0" fill="rgb(0,0,0)" stroke="rgb(128,128,128)" stroke-linecap="butt" stroke-miterlimit="10.0" stroke-opacity="1.0" stroke-width="0.723746864455746"><path d="M -0.0000,35.7143 h 4.7619 h 4.7619 h 4.7619 h 4.7619 h 4.7619 h 4.7619 h 4.7619 h 4.7619 h 4.7619 h 4.7619 h 4.7619 h 4.7619 h 4.7619 h 4.7619 h 4.7619 h 4.7619 h 4.7619 h 4.7619 h 4.7619 h 4.7619 h 4.7619 h 4.7619 h 4.7619 h 4.7619 h 4.7619 h 4.7619 h 4.7619 h 4.7619 h 4.7619 h 4.7619 h 4.7619 h 4.7619 h 4.7619 h 4.7619 h 4.7619 h 4.7619 h 4.7619 h 4.7619 h 4.7619 h 4.7619 h 4.7619 h 4.7619 h 4.7619 h 4.7619 h 4.7619 h 4.7619 h 4.7619 h 4.7619 h 4.7619 h 4.7619 "/></g><g stroke-linejoin="miter" fill-opacity="0.0" fill="rgb(0,0,0)" stroke="rgb(128,128,128)" stroke-linecap="butt" stroke-miterlimit="10.0" stroke-opacity="1.0" stroke-width="0.723746864455746"><path d="M -0.0000,59.5238 h 4.7619 h 4.7619 h 4.7619 h 4.7619 h 4.7619 h 4.7619 h 4.7619 h 4.7619 h 4.7619 h 4.7619 h 4.7619 h 4.7619 h 4.7619 h 4.7619 h 4.7619 h 4.7619 h 4.7619 h 4.7619 h 4.7619 h 4.7619 h 4.7619 h 4.7619 h 4.7619 h 4.7619 h 4.7619 h 4.7619 h 4.7619 h 4.7619 h 4.7619 h 4.7619 h 4.7619 h 4.7619 h 4.7619 h 4.7619 h 4.7619 h 4.7619 h 4.7619 h 4.7619 h 4.7619 h 4.7619 h 4.7619 h 4.7619 h 4.7619 h 4.7619 h 4.7619 h 4.7619 h 4.7619 h 4.7619 h 4.7619 h 4.7619 "/></g><g stroke-linejoin="miter" fill-opacity="0.0" fill="rgb(0,0,0)" stroke="rgb(128,128,128)" stroke-linecap="butt" stroke-miterlimit="10.0" stroke-opacity="1.0" stroke-width="0.723746864455746"><path d="M -0.0000,83.3333 h 4.7619 h 4.7619 h 4.7619 h 4.7619 h 4.7619 h 4.7619 h 4.7619 h 4.7619 h 4.7619 h 4.7619 h 4.7619 h 4.7619 h 4.7619 h 4.7619 h 4.7619 h 4.7619 h 4.7619 h 4.7619 h 4.7619 h 4.7619 h 4.7619 h 4.7619 h 4.7619 h 4.7619 h 4.7619 h 4.7619 h 4.7619 h 4.7619 h 4.7619 h 4.7619 h 4.7619 h 4.7619 h 4.7619 h 4.7619 h 4.7619 h 4.7619 h 4.7619 h 4.7619 h 4.7619 h 4.7619 h 4.7619 h 4.7619 h 4.7619 h 4.7619 h 4.7619 h 4.7619 h 4.7619 h 4.7619 h 4.7619 h 4.7619 "/></g><g stroke-linejoin="miter" fill-opacity="0.0" fill="rgb(0,0,0)" stroke="rgb(128,128,128)" stroke-linecap="butt" stroke-miterlimit="10.0" stroke-opacity="1.0" stroke-width="0.723746864455746"><path d="M -0.0000,107.1429 h 4.7619 h 4.7619 h 4.7619 h 4.7619 h 4.7619 h 4.7619 h 4.7619 h 4.7619 h 4.7619 h 4.7619 h 4.7619 h 4.7619 h 4.7619 h 4.7619 h 4.7619 h 4.7619 h 4.7619 h 4.7619 h 4.7619 h 4.7619 h 4.7619 h 4.7619 h 4.7619 h 4.7619 h 4.7619 h 4.7619 h 4.7619 h 4.7619 h 4.7619 h 4.7619 h 4.7619 h 4.7619 h 4.7619 h 4.7619 h 4.7619 h 4.7619 h 4.7619 h 4.7619 h 4.7619 h 4.7619 h 4.7619 h 4.7619 h 4.7619 h 4.7619 h 4.7619 h 4.7619 h 4.7619 h 4.7619 h 4.7619 h 4.7619 "/></g><g stroke-linejoin="miter" fill-opacity="0.0" fill="rgb(0,0,0)" stroke="rgb(128,128,128)" stroke-linecap="butt" stroke-miterlimit="10.0" stroke-opacity="1.0" stroke-width="0.723746864455746"><path d="M -0.0000,130.9524 h 4.7619 h 4.7619 h 4.7619 h 4.7619 h 4.7619 h 4.7619 h 4.7619 h 4.7619 h 4.7619 h 4.7619 h 4.7619 h 4.7619 h 4.7619 h 4.7619 h 4.7619 h 4.7619 h 4.7619 h 4.7619 h 4.7619 h 4.7619 h 4.7619 h 4.7619 h 4.7619 h 4.7619 h 4.7619 h 4.7619 h 4.7619 h 4.7619 h 4.7619 h 4.7619 h 4.7619 h 4.7619 h 4.7619 h 4.7619 h 4.7619 h 4.7619 h 4.7619 h 4.7619 h 4.7619 h 4.7619 h 4.7619 h 4.7619 h 4.7619 h 4.7619 h 4.7619 h 4.7619 h 4.7619 h 4.7619 h 4.7619 h 4.7619 "/></g><g stroke-linejoin="miter" fill-opacity="0.0" fill="rgb(0,0,0)" stroke="rgb(128,128,128)" stroke-linecap="butt" stroke-miterlimit="10.0" stroke-opacity="1.0" stroke-width="0.723746864455746"><path d="M -0.0000,154.7619 h 4.7619 h 4.7619 h 4.7619 h 4.7619 h 4.7619 h 4.7619 h 4.7619 h 4.7619 h 4.7619 h 4.7619 h 4.7619 h 4.7619 h 4.7619 h 4.7619 h 4.7619 h 4.7619 h 4.7619 h 4.7619 h 4.7619 h 4.7619 h 4.7619 h 4.7619 h 4.7619 h 4.7619 h 4.7619 h 4.7619 h 4.7619 h 4.7619 h 4.7619 h 4.7619 h 4.7619 h 4.7619 h 4.7619 h 4.7619 h 4.7619 h 4.7619 h 4.7619 h 4.7619 h 4.7619 h 4.7619 h 4.7619 h 4.7619 h 4.7619 h 4.7619 h 4.7619 h 4.7619 h 4.7619 h 4.7619 h 4.7619 h 4.7619 "/></g><g stroke-linejoin="miter" fill-opacity="0.0" fill="rgb(0,0,0)" stroke="rgb(128,128,128)" stroke-linecap="butt" stroke-miterlimit="10.0" stroke-opacity="1.0" stroke-width="0.723746864455746"><path d="M -0.0000,178.5714 h 4.7619 h 4.7619 h 4.7619 h 4.7619 h 4.7619 h 4.7619 h 4.7619 h 4.7619 h 4.7619 h 4.7619 h 4.7619 h 4.7619 h 4.7619 h 4.7619 h 4.7619 h 4.7619 h 4.7619 h 4.7619 h 4.7619 h 4.7619 h 4.7619 h 4.7619 h 4.7619 h 4.7619 h 4.7619 h 4.7619 h 4.7619 h 4.7619 h 4.7619 h 4.7619 h 4.7619 h 4.7619 h 4.7619 h 4.7619 h 4.7619 h 4.7619 h 4.7619 h 4.7619 h 4.7619 h 4.7619 h 4.7619 h 4.7619 h 4.7619 h 4.7619 h 4.7619 h 4.7619 h 4.7619 h 4.7619 h 4.7619 h 4.7619 "/></g><g stroke-linejoin="miter" fill-opacity="0.0" fill="rgb(0,0,0)" stroke="rgb(128,128,128)" stroke-linecap="butt" stroke-miterlimit="10.0" stroke-opacity="1.0" stroke-width="0.723746864455746"><path d="M -0.0000,202.3810 h 4.7619 h 4.7619 h 4.7619 h 4.7619 h 4.7619 h 4.7619 h 4.7619 h 4.7619 h 4.7619 h 4.7619 h 4.7619 h 4.7619 h 4.7619 h 4.7619 h 4.7619 h 4.7619 h 4.7619 h 4.7619 h 4.7619 h 4.7619 h 4.7619 h 4.7619 h 4.7619 h 4.7619 h 4.7619 h 4.7619 h 4.7619 h 4.7619 h 4.7619 h 4.7619 h 4.7619 h 4.7619 h 4.7619 h 4.7619 h 4.7619 h 4.7619 h 4.7619 h 4.7619 h 4.7619 h 4.7619 h 4.7619 h 4.7619 h 4.7619 h 4.7619 h 4.7619 h 4.7619 h 4.7619 h 4.7619 h 4.7619 h 4.7619 "/></g><g stroke-linejoin="miter" fill-opacity="0.0" fill="rgb(0,0,0)" stroke="rgb(128,128,128)" stroke-linecap="butt" stroke-miterlimit="10.0" stroke-opacity="1.0" stroke-width="0.723746864455746"><path d="M -0.0000,226.1905 h 4.7619 h 4.7619 h 4.7619 h 4.7619 h 4.7619 h 4.7619 h 4.7619 h 4.7619 h 4.7619 h 4.7619 h 4.7619 h 4.7619 h 4.7619 h 4.7619 h 4.7619 h 4.7619 h 4.7619 h 4.7619 h 4.7619 h 4.7619 h 4.7619 h 4.7619 h 4.7619 h 4.7619 h 4.7619 h 4.7619 h 4.7619 h 4.7619 h 4.7619 h 4.7619 h 4.7619 h 4.7619 h 4.7619 h 4.7619 h 4.7619 h 4.7619 h 4.7619 h 4.7619 h 4.7619 h 4.7619 h 4.7619 h 4.7619 h 4.7619 h 4.7619 h 4.7619 h 4.7619 h 4.7619 h 4.7619 h 4.7619 h 4.7619 "/></g></svg>